<svg xmlns="http://www.w3.org/2000/svg" width="41.363" height="43.982" viewBox="0 0 41.363 43.982"><defs><style>.a{fill:#fcb53e;}</style></defs><g transform="translate(-1.8 1)"><path class="a" d="M35.563,18.741V40.929A1.56,1.56,0,0,1,34.1,42.573H6.477a1.567,1.567,0,0,1-1.462-1.644V10.359A1.728,1.728,0,0,1,6.477,8.551H26.355a1.692,1.692,0,0,0,1.608-1.644h0A1.86,1.86,0,0,0,26.5,5.1H6.477A4.979,4.979,0,0,0,1.8,10.195h0V40.6c0,3.123,2.046,5.424,4.677,5.424H34.1a4.862,4.862,0,0,0,4.531-5.095V18.741a1.727,1.727,0,0,0-1.462-1.808h0a1.732,1.732,0,0,0-1.608,1.808Z" transform="translate(0 -3.042)"/><path class="a" d="M9.146,16.2H26.539a2,2,0,0,1,2.046,2.046h0a2,2,0,0,1-2.046,2.046H9.146A2,2,0,0,1,7.1,18.246h0A2,2,0,0,1,9.146,16.2Z" transform="translate(2.446 4.274)"/><path class="a" d="M9.146,20.4H26.539a2,2,0,0,1,2.046,2.046h0a2,2,0,0,1-2.046,2.046H9.146A2,2,0,0,1,7.1,22.446h0A2,2,0,0,1,9.146,20.4Z" transform="translate(2.446 8.551)"/><path class="a" d="M9.146,12H26.539a2,2,0,0,1,2.046,2.046h0a2,2,0,0,1-2.046,2.046H9.146A2,2,0,0,1,7.1,14.046h0A2,2,0,0,1,9.146,12Z" transform="translate(2.446 0.597)"/><path class="a" d="M23.262,5.2H32.47a1.465,1.465,0,0,1,1.462,1.462h0A1.6,1.6,0,0,1,32.47,8.269H23.262A1.5,1.5,0,0,1,21.8,6.662h0A1.465,1.465,0,0,1,23.262,5.2Z" transform="translate(9.232 -1.523)"/><path class="a" d="M27.969,3.462V12.67a1.5,1.5,0,0,1-1.608,1.462h0A1.465,1.465,0,0,1,24.9,12.67V3.462A1.465,1.465,0,0,1,26.362,2h0A1.5,1.5,0,0,1,27.969,3.462Z" transform="translate(10.663 -3)"/></g></svg>