<svg xmlns="http://www.w3.org/2000/svg" width="42.152" height="42.15" viewBox="0 0 42.152 42.15"><defs><style>.a{fill:#fcb53e;}</style></defs><g transform="translate(-4.995 -5)"><g transform="translate(4.995 5)"><path class="a" d="M19.18,14.6A5.453,5.453,0,0,0,17.98,8.7L15.175,5.894a3.066,3.066,0,0,0-4.328,0,.834.834,0,0,0,0,1.18l4.379,4.379a1.562,1.562,0,0,1,0,2.2l-1.57,1.57a1.559,1.559,0,0,1-2.2,0L7.074,10.847a.834.834,0,0,0-1.18,0,3.066,3.066,0,0,0,0,4.328L8.7,17.98a5.453,5.453,0,0,0,5.905,1.2,2.222,2.222,0,0,1,2.365.547c3.612,3.6,11.854,11.846,15.458,15.45a2.218,2.218,0,0,1,.543,2.368,5.453,5.453,0,0,0,1.2,5.905l2.805,2.805a3.066,3.066,0,0,0,4.328,0,.834.834,0,0,0,0-1.18L36.92,40.693a1.553,1.553,0,0,1,0-2.2l1.574-1.574a1.562,1.562,0,0,1,2.2,0L45.076,41.3a.834.834,0,0,0,1.18,0,3.066,3.066,0,0,0,0-4.328L43.451,34.17a5.453,5.453,0,0,0-5.905-1.2,2.222,2.222,0,0,1-2.365-.547L19.727,16.969A2.222,2.222,0,0,1,19.18,14.6Z" transform="translate(-4.998 -5)"/><g transform="translate(0 0.003)"><path class="a" d="M20.1,46.186a.893.893,0,0,0-1.263,0l-1.786,1.786a.906.906,0,0,0,0,1.278l0,0a.856.856,0,0,1,0,1.21l-.341.341a.856.856,0,0,1-1.21,0l0,0a.906.906,0,0,0-1.278,0L6.675,58.346a5.737,5.737,0,0,0,0,8.112l.771.771a5.738,5.738,0,0,0,8.108,0l7.55-7.542a.913.913,0,0,0,.264-.639.9.9,0,0,0-.264-.639h0a.856.856,0,0,1,0-1.21l.341-.341a.856.856,0,0,1,1.21,0h0a.9.9,0,0,0,1.278,0l1.787-1.787a.892.892,0,0,0,0-1.263ZM8.575,62.718a.906.906,0,0,1,0-1.278l6.5-6.5a.9.9,0,0,1,1.278,1.278l-6.5,6.5A.906.906,0,0,1,8.575,62.718Zm10.391-3.89-6.5,6.5a.9.9,0,0,1-1.278-1.278l6.5-6.5a.9.9,0,1,1,1.278,1.278Z" transform="translate(-4.995 -26.761)"/><path class="a" d="M59.8,13.853a.148.148,0,0,1,0,.209l-8.362,8.362,2.982,2.982,8.362-8.362a.147.147,0,0,1,.2,0,1.047,1.047,0,0,0,.1.085,2.184,2.184,0,0,0,3.051-.435L71.659,9.4a.9.9,0,0,0-.081-1.18L68.63,5.272a.908.908,0,0,0-1.184-.085L60.151,10.7a2.194,2.194,0,0,0-.426,3.068A.742.742,0,0,0,59.8,13.853Z" transform="translate(-29.69 -5.007)"/></g></g></g></svg>