<svg xmlns="http://www.w3.org/2000/svg" width="43.279" height="45.059" viewBox="0 0 43.279 45.059"><defs><style>.a{fill:#fcb53e;stroke:#fcb53e;}</style></defs><g transform="translate(0.5 0.563)"><path class="a" d="M42.312,2.334l-20.7,11.952-.449.259-.441-.266L.9,2.327,1.809.822,21.187,12.507,41.439.815Z" transform="translate(-0.476 -0.695)"/><path class="a" d="M1.73.8h41.4V24.27h-26.6l.4-.4a3.75,3.75,0,0,0,.656-.889,3.85,3.85,0,0,0,.211-.469H41.37V2.56H2.61V22.51h.826a16.184,16.184,0,0,0,.456,1.76H.85V.8h.88Z" transform="translate(-0.85 -0.8)"/><path class="a" d="M33.994,27.392a2.38,2.38,0,0,1-.107,1.108,2.479,2.479,0,0,1-.6.941h0l-4.335,4.3a3.027,3.027,0,0,1-.476.425,3.723,3.723,0,0,1-.565.334,4.413,4.413,0,0,1-.589.237,3.779,3.779,0,0,1-.6.138l-.118.01h0s0,0,0,0l-.117.009q-.1.01-.244.016c-.13.005-.22.008-.269.008-4.848,0-10.316-3.14-14.865-7.4C6.083,22.83,2.142,16.731,1.39,12q-.072-.451-.109-.832t-.038-.709h0v-.026h0c0-.052,0-.094,0-.124,0-.065,0-.106,0-.119.013-.243.022-.4.025-.453s0-.115,0-.156l.01-.124a3.776,3.776,0,0,1,.138-.6,4.423,4.423,0,0,1,.237-.589A3.712,3.712,0,0,1,2,7.693a3.042,3.042,0,0,1,.393-.447h0L6.757,2.879a2.482,2.482,0,0,1,.764-.527,2.244,2.244,0,0,1,.909-.191v0a2.161,2.161,0,0,1,.674.1,2.081,2.081,0,0,1,.607.319,3.1,3.1,0,0,1,.424.382,3.254,3.254,0,0,1,.347.456l.038.062,3.5,6.646h0a2.435,2.435,0,0,1,.292.856,2.58,2.58,0,0,1-.035.9,3.054,3.054,0,0,1-.288.808,2.872,2.872,0,0,1-.509.684l0,0L12,14.87a4.055,4.055,0,0,0,.126.393,6.875,6.875,0,0,0,.336.741l0,.01a18.665,18.665,0,0,0,3.359,4.335,19.019,19.019,0,0,0,4.35,3.388v0q.368.188.609.285a2.056,2.056,0,0,0,.346.112l.169.034,1.743-1.773.041-.041a2.9,2.9,0,0,1,1.963-.749,3.172,3.172,0,0,1,.69.073,2.182,2.182,0,0,1,.609.229l.067.019,6.338,3.744.014.01a2.873,2.873,0,0,1,.791.7,2.321,2.321,0,0,1,.433.957l.007.058Zm-1.764.531a.627.627,0,0,0,.03-.254.588.588,0,0,0-.108-.233,1.108,1.108,0,0,0-.3-.259h0l-6.315-3.73-.059-.017a.426.426,0,0,0-.125-.045,1.51,1.51,0,0,0-.312-.025,1.128,1.128,0,0,0-.789.3L22.42,25.526l0,0a1.237,1.237,0,0,1-.292.216,1.71,1.71,0,0,1-.268.112q-.131.044-.206.061a1.27,1.27,0,0,1-.282.036l-.172-.017-.41-.082a3.807,3.807,0,0,1-.655-.208q-.35-.141-.754-.347v0a20.769,20.769,0,0,1-4.8-3.711A20.421,20.421,0,0,1,10.9,16.807h0a8.56,8.56,0,0,1-.419-.934,5.409,5.409,0,0,1-.255-.883l-.017-.162a1.442,1.442,0,0,1,.03-.283,2.135,2.135,0,0,1,.068-.239,1.7,1.7,0,0,1,.112-.268,1.244,1.244,0,0,1,.213-.289v0l1.609-1.609h0a1.11,1.11,0,0,0,.2-.266,1.29,1.29,0,0,0,.123-.341.854.854,0,0,0,.014-.3.7.7,0,0,0-.086-.244l-.01-.021-3.5-6.643a1.534,1.534,0,0,0-.136-.17,1.36,1.36,0,0,0-.184-.169.336.336,0,0,0-.1-.051.42.42,0,0,0-.131-.02v0a.514.514,0,0,0-.208.039A.754.754,0,0,0,8,4.123L3.634,8.49,3.6,8.521a1.283,1.283,0,0,0-.18.2,1.948,1.948,0,0,0-.175.3,2.651,2.651,0,0,0-.141.355,2.1,2.1,0,0,0-.069.282l-.008.155c-.008.162-.016.316-.025.467l0,.071c0,.034,0,.06,0,.076H3v.026H3q0,.227.031.544t.1.722C3.816,16.087,7.54,21.8,12.3,26.245c4.253,3.979,9.3,6.915,13.669,6.915h.207c.049,0,.093,0,.134-.009.147-.015.094-.012.145-.016l.061,0a2.106,2.106,0,0,0,.277-.069,2.651,2.651,0,0,0,.355-.141,1.957,1.957,0,0,0,.3-.175,1.285,1.285,0,0,0,.2-.18l.034-.034L32.044,28.2l0,0a.755.755,0,0,0,.188-.274ZM26.6,34.886h0Z" transform="translate(1.972 9.063)"/></g></svg>