<svg xmlns="http://www.w3.org/2000/svg" width="45.66" height="43.982" viewBox="0 0 45.66 43.982"><defs><style>.a{fill:none;}.b{fill:#fcb53e;}</style></defs><g transform="translate(-2 -3.029)"><g transform="translate(2 3.029)"><circle class="a" cx="11.415" cy="11.415" r="11.415" transform="translate(11.415 9.737)"/><path class="b" d="M46.029,17.658H44.985a21.2,21.2,0,0,0-40.311,0H3.631A1.631,1.631,0,0,0,2,19.289v9.784A1.631,1.631,0,0,0,3.631,30.7H6.892a1.631,1.631,0,0,0,1.631-1.631V19.289a1.631,1.631,0,0,0-.538-1.19,17.938,17.938,0,0,1,33.69,0,1.631,1.631,0,0,0-.538,1.19v9.784a1.631,1.631,0,0,0,.538,1.19A17.938,17.938,0,0,1,27.5,41.89a3.264,3.264,0,1,0,.261,3.261A21.2,21.2,0,0,0,44.985,30.7h1.044a1.631,1.631,0,0,0,1.631-1.631V19.289A1.631,1.631,0,0,0,46.029,17.658Z" transform="translate(-2 -3.029)"/><path class="b" d="M36.353,21.676A14.676,14.676,0,1,0,21.676,36.353,14.676,14.676,0,0,0,36.353,21.676Zm-26.091,0A11.415,11.415,0,1,1,21.676,33.091,11.415,11.415,0,0,1,10.261,21.676Z" transform="translate(1.154 -0.524)"/></g></g></svg>