<svg xmlns="http://www.w3.org/2000/svg" width="44.612" height="40.151" viewBox="0 0 44.612 40.151"><defs><style>.a{fill:#fcb53e;}</style></defs><g transform="translate(0 62)"><g transform="translate(0 -62)"><path class="a" d="M12.045,15.722,8.476,12.153H31.228a8.949,8.949,0,0,1,8.922,8.922h4.461A13.423,13.423,0,0,0,31.228,7.692H8.476l3.569-3.569L8.922,1,0,9.922l8.922,8.922Z" transform="translate(0 -1)"/><path class="a" d="M35.69,12.231l-3.123,3.123,3.569,3.569H13.384A8.949,8.949,0,0,1,4.461,10H0A13.423,13.423,0,0,0,13.384,23.384H36.136l-3.569,3.569,3.123,3.123,8.922-8.922Z" transform="translate(0 10.075)"/></g></g></svg>