<svg xmlns="http://www.w3.org/2000/svg" width="51.756" height="41.226" viewBox="0 0 51.756 41.226"><defs><style>.a{fill:#fcb53e;stroke:#fcb53e;}</style></defs><g transform="translate(-4.4 -10.725)"><path class="a" d="M47.939,35.39a3.962,3.962,0,0,0,3.774,2.59,3.639,3.639,0,1,0,0-7.253,3.908,3.908,0,0,0-3.774,2.59H43.263V24.77l1.8-2.849h2.873a3.962,3.962,0,0,0,3.774,2.59,3.771,3.771,0,0,0,3.943-3.627,3.771,3.771,0,0,0-3.943-3.627,3.908,3.908,0,0,0-3.774,2.59H44.108c-.056,0-.056,0-.113.052-.056,0-.056,0-.113.052-.056,0-.056,0-.113.052-.056,0-.056.052-.113.052s-.056.052-.113.052a.2.2,0,0,1-.113.052l-.056.052c0,.052-.056.052-.056.1v.052l-1.69,2.746-.62-.1c-1.352-.259-2.76-.414-4.112-.57l-.563-3.471a4.238,4.238,0,0,0-1.915-2.8l3.38-3.108a.947.947,0,0,0,0-1.451,1.156,1.156,0,0,0-1.577,0l-4.169,3.834H28.5l-4.169-3.834a1.156,1.156,0,0,0-1.577,0,.947.947,0,0,0,0,1.451l3.38,3.108a4.122,4.122,0,0,0-1.915,2.8l-.563,3.471c-1.352.155-2.76.311-4.112.57l-.62.1-1.69-2.746v-.052c0-.052-.056-.052-.056-.1l-.056-.052-.056-.052a19298.059,19298.059,0,0,1-.225-.1.2.2,0,0,0-.113-.052c-.056,0-.056,0-.113-.052s-.056,0-.113-.052H12.674A3.962,3.962,0,0,0,8.9,17.258a3.771,3.771,0,0,0-3.943,3.627A3.771,3.771,0,0,0,8.9,24.511a3.908,3.908,0,0,0,3.774-2.59h2.873l1.8,2.849v8.548H12.674A3.962,3.962,0,0,0,8.9,30.728a3.639,3.639,0,1,0,0,7.253,3.908,3.908,0,0,0,3.774-2.59H17.35a11.605,11.605,0,0,0,3.774,8.186l-5.3,3.212H12.618A3.962,3.962,0,0,0,8.843,44.2a3.639,3.639,0,1,0,0,7.253,3.908,3.908,0,0,0,3.774-2.59h3.605a.546.546,0,0,0,.282-.052h.056c.113-.052.169-.052.282-.1h0l6.14-3.782a13.686,13.686,0,0,0,14.647,0l6.084,3.73h0a.451.451,0,0,0,.282.1h.056c.113,0,.169.052.282.052h3.549a3.962,3.962,0,0,0,3.774,2.59,3.639,3.639,0,1,0,0-7.253,3.908,3.908,0,0,0-3.774,2.59H44.671l-5.3-3.212a11.294,11.294,0,0,0,3.774-8.186h4.788Zm3.774-2.59a1.6,1.6,0,0,1,1.69,1.554,1.7,1.7,0,0,1-3.38,0A1.6,1.6,0,0,1,51.713,32.8Zm0-13.47a1.6,1.6,0,0,1,1.69,1.554,1.7,1.7,0,0,1-3.38,0A1.6,1.6,0,0,1,51.713,19.33ZM8.9,22.439a1.63,1.63,0,0,1-1.69-1.554A1.6,1.6,0,0,1,8.9,19.33a1.6,1.6,0,0,1,1.69,1.554A1.63,1.63,0,0,1,8.9,22.439Zm0,13.47a1.63,1.63,0,0,1-1.69-1.554A1.6,1.6,0,0,1,8.9,32.8a1.6,1.6,0,0,1,1.69,1.554A1.63,1.63,0,0,1,8.9,35.909Zm0,13.47a1.63,1.63,0,0,1-1.69-1.554A1.6,1.6,0,0,1,8.9,46.27a1.6,1.6,0,0,1,1.69,1.554A1.63,1.63,0,0,1,8.9,49.379ZM51.713,46.27a1.6,1.6,0,0,1,1.69,1.554,1.7,1.7,0,0,1-3.38,0A1.6,1.6,0,0,1,51.713,46.27ZM26.476,19.227a2.2,2.2,0,0,1,2.253-1.761H31.94a2.2,2.2,0,0,1,2.253,1.761l.507,2.9h-.845c-2.422-.1-4.676-.1-7.042,0h-.845ZM41.01,35.08c0,5.077-4.225,9.274-9.577,9.792V34.562a1.131,1.131,0,0,0-2.253,0v10.31c-5.352-.518-9.577-4.714-9.577-9.792v-10L20,25.029a52.516,52.516,0,0,1,6.929-.777h6.76q3.464.233,6.929.777l.394.052Z"/></g></svg>