<svg xmlns="http://www.w3.org/2000/svg" width="42.28" height="40.151" viewBox="0 0 42.28 40.151"><defs><style>.a{fill:#fcb53e;}</style></defs><g transform="translate(-111.72 -127.414)"><g transform="translate(111.72 127.414)"><path class="a" d="M140.836,167.565H124.884v-3.259h6.347V160.97H115.878a4.171,4.171,0,0,1-4.158-4.158V136.469a4.176,4.176,0,0,1,4.158-4.158h7.56v3.259h-7.56a.9.9,0,0,0-.9.9v20.343a.9.9,0,0,0,.9.9h33.964a.906.906,0,0,0,.9-.9V136.469a.9.9,0,0,0-.9-.9h-7.56v-3.259h7.56A4.171,4.171,0,0,1,154,136.469v20.343a4.166,4.166,0,0,1-4.158,4.158H134.49v3.336h6.347Zm-6.153-31.812v14.774a1.824,1.824,0,0,1-3.647,0V135.751h-2.891a1.441,1.441,0,0,1-1.088-2.379l4.7-5.444a1.441,1.441,0,0,1,2.189-.016l4.642,5.377a1.445,1.445,0,0,1-1.016,2.467Z" transform="translate(-111.72 -127.414)"/></g></g></svg>