<svg xmlns="http://www.w3.org/2000/svg" width="52.536" height="42.15" viewBox="0 0 52.536 42.15"><defs><style>.a{fill:#fcb53e;}</style></defs><g transform="translate(-7 -15.501)"><path class="a" d="M46.707,45.739H41.262a7.935,7.935,0,0,1-1.844-.254,14.057,14.057,0,0,1-3.224-1.257A10.563,10.563,0,0,1,33.654,42.4c-1.42-1.464-3.477-3.576-5.663-5.82,2.187-2.244,4.243-4.355,5.663-5.82a11.757,11.757,0,0,1,3.6-2.349,13.462,13.462,0,0,1,2.161-.74,7.935,7.935,0,0,1,1.844-.254h5.445v7.636l12.828-9.774L46.708,15.5v7.635H41.262a12.151,12.151,0,0,0-2.863.376,18.358,18.358,0,0,0-4.228,1.642,14.748,14.748,0,0,0-3.588,2.624c-1.4,1.443-3.421,3.52-5.579,5.733-2.378-2.44-4.647-4.769-6.174-6.344a15.89,15.89,0,0,0-4.962-3.291,17.823,17.823,0,0,0-2.855-.975,12.155,12.155,0,0,0-2.863-.376H7V26.8H8.152A7.935,7.935,0,0,1,10,27.055a14.072,14.072,0,0,1,3.224,1.257,10.585,10.585,0,0,1,2.54,1.833c1.549,1.6,3.853,3.962,6.259,6.431-2.406,2.469-4.71,4.833-6.259,6.43a11.769,11.769,0,0,1-3.6,2.349A13.466,13.466,0,0,1,10,46.1a7.935,7.935,0,0,1-1.844.254H7v4.276H8.152a12.129,12.129,0,0,0,2.863-.377,18.331,18.331,0,0,0,4.228-1.642,14.751,14.751,0,0,0,3.588-2.624c1.527-1.575,3.8-3.9,6.174-6.344,2.157,2.213,4.18,4.29,5.579,5.733a15.88,15.88,0,0,0,4.961,3.291,17.763,17.763,0,0,0,2.855.975,12.152,12.152,0,0,0,2.863.377h5.445v7.636l12.828-9.774L46.708,38.1v7.636Z"/></g></svg>