<svg xmlns="http://www.w3.org/2000/svg" width="51.656" height="43.495" viewBox="0 0 51.656 43.495"><defs><style>.a{fill:#fcb53e;stroke:#fcb53e;}</style></defs><g transform="translate(365.5 -260)"><path class="a" d="M-317.552,301.194v-3.265h-1.857v3.265h-14.747v-3.265h-1.857v3.265h-12.608v-3.265h-1.857v3.265h-12.664v-.788l13.959-13.959h14.521l15.253-15.253v3.94h1.857v-7.092H-324.7v1.8h4l-14.747,14.747h-14.521l-13.171,13.227V260.5H-365v42.495h50.656v-1.8Z"/><rect class="a" width="1.857" height="4.165" transform="translate(-319.409 291.738)"/><rect class="a" width="1.857" height="4.165" transform="translate(-319.409 285.547)"/><rect class="a" width="1.857" height="4.165" transform="translate(-319.409 279.299)"/><rect class="a" width="1.857" height="4.165" transform="translate(-336.013 291.738)"/><rect class="a" width="1.857" height="4.165" transform="translate(-350.479 291.738)"/><path class="a" d="M-341.069,281.161a9.236,9.236,0,0,0,9.231-9.231,9.2,9.2,0,0,0-9.231-9.231,9.2,9.2,0,0,0-9.231,9.231A9.236,9.236,0,0,0-341.069,281.161Zm0-16.548a7.4,7.4,0,0,1,7.373,7.373,7.4,7.4,0,0,1-7.373,7.373,7.4,7.4,0,0,1-7.373-7.373A7.4,7.4,0,0,1-341.069,264.614Z" transform="translate(-6.426 -0.962)"/><path class="a" d="M-338.035,280.074h1.857v-3.208h3.152v-1.857h-3.152V271.8h-1.857v3.208H-341.3v1.857h3.265Z" transform="translate(-10.361 -4.94)"/></g></svg>