<svg xmlns="http://www.w3.org/2000/svg" width="46.298" height="47.69" viewBox="0 0 46.298 47.69"><defs><style>.a{fill:#fcb53e;}</style></defs><g transform="translate(-88.456 -75.367)"><g transform="translate(88.456 75.367)"><g transform="translate(0.005 0)"><path class="a" d="M108.434,113.508H96.225c-1.639,0-3.284.011-4.924,0h-.049c-.257.011.279.087.06.016-.355-.109.262.137-.066-.022-.12-.06-.016-.115.109.093-.016-.022-.077-.077-.1-.1-.18-.158.115.224.066.082a.53.53,0,0,0-.087-.153c.027.027.093.322.066.126-.055-.322-.016.077,0,.077V78.068c-.005-.137.082-.109-.033.137a.91.91,0,0,0,.033-.142c.038-.24-.142.213-.049.1a.614.614,0,0,0,.087-.153c-.142.169-.175.219-.1.142.022-.027.049-.049.071-.076.131-.153-.082.076-.115.082a.729.729,0,0,0,.153-.087c.12-.093-.333.087-.1.049a.6.6,0,0,0,.142-.033c-.257.115-.273.022-.137.033h.071c.978-.005,1.956,0,2.935,0h33.626c.251,0,.508.011.76,0h.016a.358.358,0,0,0,.077,0l-.219-.033a.667.667,0,0,1,.142.033c.23.038-.268-.164-.066-.033a.692.692,0,0,0,.12.071c-.213-.055-.208-.191-.115-.082.24.273-.158-.251.038.055.082.126-.066.066-.055-.131a.742.742,0,0,0,.038.137c.082.251,0-.344-.016-.071-.005.1,0,.2,0,.306V98.8a1.366,1.366,0,1,0,2.732,0V78.248a3.155,3.155,0,0,0-.12-.984,2.736,2.736,0,0,0-2.574-1.891c-.847-.016-1.7,0-2.547,0H92.132c-.284,0-.574-.005-.858,0a2.729,2.729,0,0,0-2.716,2.743c-.005,1.016,0,2.033,0,3.055V110.3c0,1.055-.005,2.1,0,3.159a2.729,2.729,0,0,0,2.722,2.771c.53.005,1.066,0,1.6,0h15.553a1.361,1.361,0,1,0,.005-2.722Z" transform="translate(-88.556 -75.367)"/></g><g transform="translate(0 12.207)"><path class="a" d="M108.339,324.672H91.152c-.257.011.284.087.066.016a.883.883,0,0,0-.137-.038c.033-.005.3.164.131.055a.573.573,0,0,0-.12-.071c.033.005.246.235.115.082a.418.418,0,0,0-.1-.1c.208.126.148.23.093.109a.693.693,0,0,0-.066-.126c.082.208.109.262.071.159a.729.729,0,0,1-.027-.1c-.066-.213.005.3.016.06v-7.268c-.131.322-.268.645-.4.967l5.673-5.623c.268-.262.53-.525.8-.787H95.333l2.5,2.487q1.992,1.976,3.984,3.957c.306.3.607.607.913.907a1.391,1.391,0,0,0,1.935,0c.607-.607,1.219-1.213,1.825-1.82q2.2-2.181,4.388-4.366,2.656-2.64,5.312-5.285,2.3-2.287,4.591-4.569c.743-.738,1.514-1.454,2.23-2.219l.033-.033h-1.935c.88.874,1.76,1.743,2.645,2.618q2.1,2.074,4.192,4.148c.322.317.645.639.967.956-.131-.322-.268-.645-.4-.967v2.153a1.366,1.366,0,1,0,2.732,0v-1.394a2.234,2.234,0,0,0-.421-1.743c-.426-.448-.88-.869-1.317-1.306q-2.558-2.533-5.115-5.061l-1.355-1.339a1.391,1.391,0,0,0-1.935,0c-.607.607-1.219,1.213-1.825,1.82q-2.2,2.181-4.388,4.366-2.656,2.64-5.312,5.285-2.3,2.287-4.591,4.569c-.743.738-1.514,1.454-2.23,2.219l-.033.033h1.935l-2.5-2.487q-1.992-1.976-3.984-3.957c-.306-.3-.607-.607-.913-.907a1.4,1.4,0,0,0-1.935,0l-5.454,5.4c-.311.311-.634.618-.94.934a1.517,1.517,0,0,0-.475,1.049c-.005.126,0,.251,0,.377v6.859a2.707,2.707,0,0,0,2.847,2.716h17.029a1.369,1.369,0,0,0,.005-2.738Z" transform="translate(-88.456 -298.737)"/></g><g transform="translate(7.489 6.119)"><path class="a" d="M232.3,192.1c0,.077,0,.153-.005.23a.816.816,0,0,1-.011.115c-.011.175.055-.312.016-.142s-.066.312-.115.47c-.022.071-.055.137-.071.208.109-.377.06-.137.005-.027-.071.142-.159.268-.24.4-.115.186.224-.251.016-.022-.049.055-.093.109-.142.158-.109.109-.235.2-.344.312.011-.016.284-.2.1-.087a.5.5,0,0,0-.087.06,2.069,2.069,0,0,1-.186.109l-.191.1c-.268.137.279-.1-.011,0a3.487,3.487,0,0,1-.426.12c-.055.011-.322.055-.077.022s-.087,0-.158.005a4.3,4.3,0,0,1-.459-.016c-.148-.005.191.027.175.027-.033-.011-.077-.011-.109-.022-.1-.016-.191-.044-.29-.066-.071-.022-.142-.044-.208-.066-.033-.011-.066-.027-.1-.038-.011,0,.279.137.158.066-.142-.087-.3-.153-.443-.24-.049-.033-.251-.186-.066-.038s-.016-.016-.055-.049a4.286,4.286,0,0,1-.35-.355c-.022-.027-.044-.06-.066-.082-.005-.005.169.251.1.131-.038-.071-.093-.137-.137-.208a2.135,2.135,0,0,1-.1-.191c-.027-.055-.148-.322-.055-.1s-.005-.022-.022-.077c-.027-.082-.049-.164-.071-.246s-.033-.148-.049-.219c-.044-.219.027.328.005.027a3.778,3.778,0,0,1-.005-.5.815.815,0,0,1,.011-.115c.005-.148-.027.191-.027.175.022-.082.033-.169.049-.257.038-.153.1-.3.142-.454.005-.011-.137.284-.066.158a.77.77,0,0,0,.044-.1c.044-.087.087-.169.137-.251.038-.06.082-.12.115-.18.12-.2-.191.219-.038.049a4.313,4.313,0,0,1,.344-.361c.055-.049.115-.087.164-.137.005-.005-.251.169-.131.1.033-.016.06-.044.087-.06a4.944,4.944,0,0,1,.437-.246c.208-.109-.279.1-.06.027.071-.022.137-.049.208-.071l.251-.066c.038-.005.071-.016.109-.022.186-.038-.1.016-.142.016.153,0,.306-.022.459-.022.087,0,.175.011.268.016.148.005-.191-.027-.175-.027.049.011.1.016.148.027.18.038.355.1.53.153.137.044-.169-.077-.158-.071a.961.961,0,0,0,.131.06c.077.038.148.077.224.12s.159.109.24.159c.12.066-.137-.115-.131-.1.033.033.077.06.109.093a3.629,3.629,0,0,1,.355.355c.027.033.06.077.093.109-.027-.027-.18-.257-.087-.1.044.071.093.142.137.213s.082.148.12.224c.022.038.038.093.06.131-.022-.033-.115-.3-.055-.126a5.17,5.17,0,0,1,.142.5,1.4,1.4,0,0,0,.027.148c-.011-.038-.033-.328-.022-.137.011.093.016.2.022.3a1.366,1.366,0,1,0,2.732,0,4.848,4.848,0,0,0-3.235-4.514,4.754,4.754,0,0,0-5.148,1.41,4.768,4.768,0,1,0,8.383,3.11,1.366,1.366,0,0,0-2.732-.005Z" transform="translate(-225.501 -187.327)"/></g><g transform="translate(24.029 26.102)"><path class="a" d="M548.4,562.738c-.1-.59-.208-1.175-.317-1.765-.044.35-.093.7-.137,1.055q.615-.984,1.235-1.967a1.406,1.406,0,0,0-.213-1.656c-.782-.967-1.558-1.94-2.339-2.907a1.33,1.33,0,0,0-1.328-.35c-.787.23-1.574.459-2.355.689.35.044.7.093,1.055.137-.443-.235-.88-.47-1.323-.7.208.273.421.546.628.814-.284-.694-.568-1.383-.847-2.077A1.427,1.427,0,0,0,541.14,553h-3.716a1.416,1.416,0,0,0-1.317,1.005c-.284.694-.568,1.383-.847,2.077.208-.273.421-.547.628-.814l-1.323.7c.35-.044.7-.093,1.055-.137-.787-.229-1.574-.459-2.355-.683a1.339,1.339,0,0,0-1.328.35L529.6,558.41a1.416,1.416,0,0,0-.213,1.656l1.23,1.967c-.044-.35-.093-.7-.137-1.055-.1.59-.208,1.175-.317,1.765.208-.273.421-.547.628-.814-.656.4-1.312.814-1.967,1.219a1.42,1.42,0,0,0-.628,1.541c.24,1.148.481,2.3.721,3.448a1.334,1.334,0,0,0,.956.956c.792.142,1.585.29,2.383.432-.273-.208-.547-.421-.814-.628.306.421.607.842.913,1.257-.06-.23-.126-.459-.186-.689-.011.743-.016,1.492-.027,2.235a1.347,1.347,0,0,0,.678,1.18l3.208,1.536a1.431,1.431,0,0,0,1.656-.213c.557-.475,1.109-.951,1.667-1.426-.322.131-.645.268-.967.4h1.825c-.322-.131-.645-.268-.967-.4.557.475,1.109.951,1.667,1.426a1.441,1.441,0,0,0,1.656.213c1.071-.508,2.137-1.022,3.208-1.53a1.347,1.347,0,0,0,.678-1.18c-.011-.743-.016-1.492-.027-2.235-.06.229-.126.459-.186.689.306-.421.607-.842.913-1.262-.273.208-.547.421-.814.628.792-.142,1.585-.29,2.383-.432a1.335,1.335,0,0,0,.956-.956c.24-1.148.481-2.3.721-3.448a1.413,1.413,0,0,0-.628-1.541c-.656-.4-1.312-.814-1.967-1.219a1.377,1.377,0,0,0-1.869.492,1.393,1.393,0,0,0,.492,1.869c.656.4,1.312.814,1.967,1.219-.208-.514-.421-1.027-.628-1.541-.24,1.148-.481,2.3-.721,3.448l.956-.956-1.246.229a3.311,3.311,0,0,0-1.738.557,4.368,4.368,0,0,0-.5.672c-.169.235-.344.47-.514.71a2.366,2.366,0,0,0-.3,1.541q.008.771.016,1.541c.224-.393.454-.787.678-1.18-1.071.508-2.137,1.022-3.208,1.53l1.656.213-1.016-.869-.563-.481a1.763,1.763,0,0,0-1.126-.475c-.525-.011-1.049,0-1.574,0a1.718,1.718,0,0,0-1.169.415c-.153.126-.3.262-.454.388-.4.339-.792.683-1.191,1.022l1.656-.213-3.208-1.536c.224.393.454.787.678,1.18.006-.437.011-.869.016-1.306a3.024,3.024,0,0,0-.208-1.667c-.268-.41-.574-.8-.863-1.186a1.587,1.587,0,0,0-1.005-.683l-.727-.131c-.492-.087-.989-.18-1.481-.268l.956.956c-.24-1.148-.481-2.3-.721-3.448-.208.514-.421,1.027-.628,1.541.388-.24.776-.481,1.169-.721.552-.344,1.284-.672,1.437-1.361.115-.508.186-1.033.279-1.547a1.748,1.748,0,0,0-.131-1.263c-.109-.191-.235-.372-.35-.557-.284-.454-.568-.913-.858-1.366l-.213,1.656,2.339-2.913c-.443.115-.885.235-1.328.35.41.12.82.24,1.23.355a4.366,4.366,0,0,0,1.672.35,2.876,2.876,0,0,0,.94-.388c.246-.131.492-.257.738-.388.049-.027.1-.055.153-.082a1.584,1.584,0,0,0,.65-.864c.082-.2.164-.4.246-.6.2-.475.388-.951.585-1.432-.437.333-.88.667-1.317,1.006h3.716c-.437-.333-.88-.667-1.317-1.006.169.41.339.825.508,1.235.093.229.191.464.284.694.022.049.038.093.06.142a1.6,1.6,0,0,0,.672.842c.41.24.836.459,1.262.672a1.638,1.638,0,0,0,1.251.093c.246-.071.492-.142.743-.219.481-.142.956-.279,1.437-.421-.443-.115-.885-.235-1.328-.35.781.967,1.557,1.94,2.339,2.907l-.213-1.656c-.4.639-.825,1.273-1.208,1.924a2.44,2.44,0,0,0-.049,1.738l.2,1.115a1.375,1.375,0,0,0,1.683.956A1.424,1.424,0,0,0,548.4,562.738Z" transform="translate(-528.159 -553)"/><path class="a" d="M649.875,671.083c-.076,0-.153,0-.229-.005a.822.822,0,0,1-.115-.011c-.175-.011.312.055.142.022s-.312-.066-.465-.109a1.469,1.469,0,0,0-.2-.071c.279.055.235.109.126.055l-.1-.049c-.137-.071-.268-.153-.4-.235-.186-.115.251.224.022.016-.055-.049-.109-.093-.158-.142-.109-.1-.2-.235-.312-.339.011.011.2.284.087.1a.493.493,0,0,0-.06-.087,2.078,2.078,0,0,1-.109-.186c-.033-.06-.066-.126-.1-.191-.137-.262.093.284,0-.005-.044-.142-.087-.279-.12-.421-.011-.055-.055-.322-.022-.077s0-.082-.005-.153a4.206,4.206,0,0,1,.016-.454c.005-.147-.027.2-.027.18.011-.033.011-.071.022-.109a2.4,2.4,0,0,1,.066-.284c.022-.071.044-.137.066-.208a.789.789,0,0,0,.038-.1c0-.005-.137.279-.066.159.087-.142.148-.3.24-.437.033-.049.186-.251.038-.066s.016-.011.049-.055a4.294,4.294,0,0,1,.355-.35c.027-.022.06-.044.082-.066.006-.006-.251.175-.137.109.071-.038.137-.093.208-.137s.126-.071.186-.1.322-.148.1-.055.022,0,.071-.022c.082-.027.164-.049.246-.071s.142-.033.219-.044c.219-.044-.333.027-.033.005a3.7,3.7,0,0,1,.492-.005.818.818,0,0,1,.115.011c.148.005-.2-.027-.18-.027.082.022.169.033.251.049.148.033.3.12.454.142.011,0-.279-.137-.159-.066a.78.78,0,0,0,.1.044c.087.044.169.087.251.137l.18.115c.2.12-.224-.191-.049-.044a4.28,4.28,0,0,1,.361.344c.049.055.087.115.137.164.005.005-.175-.251-.109-.137.016.033.044.06.06.088a4.952,4.952,0,0,1,.246.437c.1.208-.1-.284-.027-.06.022.071.049.137.071.208s.044.164.06.246c.005.038.016.071.022.109.038.186-.016-.1-.016-.142,0,.153.022.3.022.454,0,.087-.011.175-.016.262-.005.148.027-.2.027-.18-.011.049-.016.1-.027.147-.038.18-.1.35-.153.525-.033.131.077-.169.071-.159a.961.961,0,0,0-.06.131c-.038.077-.076.148-.12.219s-.109.159-.153.24c-.065.12.115-.142.109-.137-.033.033-.06.076-.093.109a3.511,3.511,0,0,1-.35.35c-.033.027-.076.06-.109.093.027-.027.257-.18.1-.088-.071.044-.137.093-.208.137s-.148.082-.219.12c-.038.022-.093.038-.131.06.033-.022.3-.109.126-.055a5.011,5.011,0,0,1-.492.137,1.428,1.428,0,0,0-.148.027c.038-.011.333-.033.142-.022-.1,0-.2.011-.3.011a1.366,1.366,0,0,0,0,2.732,4.826,4.826,0,0,0,4.487-3.213,4.738,4.738,0,0,0-1.4-5.115,4.736,4.736,0,1,0-3.088,8.329,1.366,1.366,0,1,0,0-2.732Z" transform="translate(-638.763 -658.263)"/></g></g></g></svg>