<svg xmlns="http://www.w3.org/2000/svg" width="56.909" height="56.948" viewBox="0 0 56.909 56.948"><defs><style>.a{fill:#fcb53e;}</style></defs><g transform="translate(-7.5 -7.393)"><g transform="translate(7.5 7.393)"><path class="a" d="M6.662,0A1.333,1.333,0,0,1,7.989,1.2l.006.128V13.769a6.663,6.663,0,0,1-6.662,6.662,1.332,1.332,0,0,1,0-2.665,4,4,0,0,0,3.993-3.809l0-.188V1.332A1.333,1.333,0,0,1,6.662,0Z" transform="translate(28.427 14.308) rotate(90)"/><path class="a" d="M6.662,20.432a1.333,1.333,0,0,0,1.326-1.2l.006-.128V6.662A6.663,6.663,0,0,0,1.332,0a1.332,1.332,0,1,0,0,2.665A4,4,0,0,1,5.326,6.474l0,.188V19.1A1.333,1.333,0,0,0,6.662,20.432Z" transform="translate(7.995 43.623) rotate(-90)"/><path class="a" d="M6.662,14.213a1.333,1.333,0,0,0,1.326-1.2l.006-.128V6.662A6.663,6.663,0,0,0,1.332,0a1.332,1.332,0,1,0,0,2.665A4,4,0,0,1,5.326,6.474l0,.188v6.218A1.333,1.333,0,0,0,6.662,14.213Zm28.427,0a1.333,1.333,0,0,1-1.326-1.2l-.006-.128V6.662A6.663,6.663,0,0,1,40.419,0a1.332,1.332,0,1,1,0,2.665,4,4,0,0,0-3.993,3.809l0,.188v6.218A1.333,1.333,0,0,1,35.089,14.213Z" transform="translate(16.878 49.842) rotate(-90)"/><path class="a" d="M1.332,0A1.333,1.333,0,0,1,2.659,1.2l.006.128v23.1a1.333,1.333,0,0,1-2.659.128L0,24.429V1.332A1.333,1.333,0,0,1,1.332,0Z" transform="translate(32.868 27.633) rotate(90)"/><path class="a" d="M4,0a4,4,0,1,0,4,4A4,4,0,0,0,4,0ZM4,2.665A1.332,1.332,0,1,1,2.665,4,1.333,1.333,0,0,1,4,2.665Z" transform="translate(7.995 24.968) rotate(90)"/><path class="a" d="M4,0a4,4,0,1,0,4,4A4,4,0,0,0,4,0ZM4,2.665A1.332,1.332,0,1,1,2.665,4,1.333,1.333,0,0,1,4,2.665Z" transform="translate(13.325 41.847) rotate(90)"/><path class="a" d="M4,0a4,4,0,1,0,4,4A4,4,0,0,0,4,0ZM4,2.665A1.332,1.332,0,1,1,2.665,4,1.333,1.333,0,0,1,4,2.665Z" transform="translate(13.325 8.978) rotate(90)"/><path class="a" d="M4,0a4,4,0,1,0,4,4A4,4,0,0,0,4,0ZM4,2.665A1.332,1.332,0,1,1,2.665,4,1.333,1.333,0,0,1,4,2.665Z" transform="translate(21.32 1.872) rotate(90)"/><path class="a" d="M4,0a4,4,0,1,0,4,4A4,4,0,0,0,4,0ZM4,2.665A1.332,1.332,0,1,1,2.665,4,1.333,1.333,0,0,1,4,2.665Z" transform="translate(21.32 48.065) rotate(90)"/><g transform="translate(47.081 27.633) rotate(90)"><path class="a" d="M1.332,0A1.333,1.333,0,0,1,2.659,1.2l.006.128V5.774A1.333,1.333,0,0,1,.006,5.9L0,5.774V1.332A1.332,1.332,0,0,1,1.332,0Z" transform="translate(0 5.33)"/><path class="a" d="M1.332,0A1.333,1.333,0,0,1,2.659,1.2l.006.128v.888a1.333,1.333,0,0,1-2.659.128L0,2.221V1.332A1.332,1.332,0,0,1,1.332,0Z"/></g><g transform="translate(43.528 19.638) rotate(90)"><path class="a" d="M1.332,0A1.333,1.333,0,0,1,2.659,1.2l.006.128V5.774A1.333,1.333,0,0,1,.006,5.9L0,5.774V1.332A1.332,1.332,0,0,1,1.332,0Z" transform="translate(0 5.33)"/><path class="a" d="M1.332,0A1.333,1.333,0,0,1,2.659,1.2l.006.128v.888a1.333,1.333,0,0,1-2.659.128L0,2.221V1.332A1.332,1.332,0,0,1,1.332,0Z"/></g><g transform="translate(43.528 35.628) rotate(90)"><path class="a" d="M1.332,0A1.333,1.333,0,0,1,2.659,1.2l.006.128V5.774A1.333,1.333,0,0,1,.006,5.9L0,5.774V1.332A1.332,1.332,0,0,1,1.332,0Z" transform="translate(0 5.33)"/><path class="a" d="M1.332,0A1.333,1.333,0,0,1,2.659,1.2l.006.128v.888a1.333,1.333,0,0,1-2.659.128L0,2.221V1.332A1.332,1.332,0,0,1,1.332,0Z"/></g><path class="a" d="M1.332,0A1.333,1.333,0,0,1,2.659,1.2l.006.128v.888a1.333,1.333,0,0,1-2.659.128L0,2.221V1.332A1.333,1.333,0,0,1,1.332,0Z" transform="translate(36.866 42.291) rotate(90)"/><path class="a" d="M1.332,0A1.333,1.333,0,0,1,2.659,1.2l.006.128v.888a1.333,1.333,0,0,1-2.659.128L0,2.221V1.332A1.333,1.333,0,0,1,1.332,0Z" transform="translate(36.866 13.864) rotate(90)"/><path class="a" d="M37.832,58.5a1.333,1.333,0,0,1,1.326,1.2l.006.128v1.777a5.774,5.774,0,0,0,5.567,5.77l.207,0h.64a3.546,3.546,0,0,0,3.469-4.28l-.06-.239a1.333,1.333,0,0,1,2.562-.732,6.211,6.211,0,0,1-5.758,7.913l-.213,0h-.64a8.439,8.439,0,0,1-8.436-8.2l0-.24V59.832A1.333,1.333,0,0,1,37.832,58.5Z" transform="translate(-10.738 -13.1)"/><path class="a" d="M62.529,55.5a1.332,1.332,0,0,1,1.3,1.368l-.011.249-.023.307-.036.361c-.022.193-.049.4-.083.632a15.485,15.485,0,0,1-.866,3.349,8.577,8.577,0,0,1-3.127,4.169c-1.144.763-3.078.905-5.946.538l-.679-.094-.352-.054-.729-.121-.377-.067a1.333,1.333,0,1,1,.474-2.623l.324.057.623.1.591.089.284.039.543.067q.526.06.986.092l.443.026.408.013a3.881,3.881,0,0,0,1.928-.284,6.02,6.02,0,0,0,2.123-2.92,12.873,12.873,0,0,0,.713-2.771c.037-.251.066-.487.087-.706l.031-.378.008-.148A1.332,1.332,0,0,1,62.529,55.5Z" transform="translate(-12.302 -12.765)"/><path class="a" d="M65.063,46.54a1.332,1.332,0,0,1,1.616.97c1.354,5.414-.193,8.894-4.627,9.633a1.333,1.333,0,0,1-.438-2.629c2.672-.445,3.495-2.3,2.48-6.357A1.332,1.332,0,0,1,65.063,46.54Z" transform="translate(-13.419 -11.76)"/><path class="a" d="M65.654,30.8a1.333,1.333,0,0,1,1.875.187c2.53,3.092,3.258,5.2,2.959,8.088-.223,2.152-2.157,4.73-5.767,7.962a1.333,1.333,0,0,1-1.778-1.986c3.141-2.811,4.761-4.972,4.893-6.251.222-2.136-.268-3.556-2.371-6.125A1.333,1.333,0,0,1,65.654,30.8Z" transform="translate(-13.642 -9.973)"/><path class="a" d="M2.088,11.342a.863.863,0,0,0,1.241-.128C5,9.1,5.486,7.654,5.288,5.68,5.14,4.207,3.86,2.444,1.471.232A.862.862,0,0,0,.225.3.933.933,0,0,0,.294,1.591c2.079,1.924,3.152,3.4,3.24,4.277.147,1.461-.178,2.433-1.57,4.191A.933.933,0,0,0,2.088,11.342Z" transform="matrix(0.966, -0.259, 0.259, 0.966, 46.122, 12.974)"/><path class="a" d="M52.308,13.534c5.046-2.163,8.731.786,10.694,7.981a1.332,1.332,0,1,1-2.571.7c-1.591-5.834-3.828-7.623-7.073-6.233a1.332,1.332,0,0,1-1.05-2.449Z" transform="translate(-12.413 -8.001)"/><path class="a" d="M40.735,8.546c4.439-2.487,9.78-.874,12.481,4.078a1.332,1.332,0,1,1-2.34,1.276c-2-3.662-5.708-4.783-8.839-3.029a5.708,5.708,0,0,0-1.565,1.574,6.662,6.662,0,0,0-1.3,3.679l-.006.285V17.7a1.333,1.333,0,0,1-2.659.128L36.5,17.7V16.409a9.327,9.327,0,0,1,1.83-5.549A8.075,8.075,0,0,1,40.735,8.546Z" transform="translate(-10.738 -7.393)"/></g></g></svg>