<svg xmlns="http://www.w3.org/2000/svg" width="48.837" height="50.78" viewBox="0 0 48.837 50.78"><defs><style>.a{fill:#fcb53e;}</style></defs><g transform="translate(-9.402 -5.899)"><g transform="translate(9.402 5.899)"><path class="a" d="M9.519,49.443A6,6,0,0,0,21.287,51.8h1a5.9,5.9,0,0,0,5.884-5.884v-16.3a1.177,1.177,0,0,0-2.354,0v6.12H19.7a6.731,6.731,0,0,1-5.59-2.883,6.87,6.87,0,0,1,1.648-9.532,1.279,1.279,0,0,0,.471-1.177,10.134,10.134,0,0,1-.235-2.295A11.56,11.56,0,0,1,21.64,9.9a11.737,11.737,0,0,1,16.005,4,1.124,1.124,0,0,0,1.353.53,6.409,6.409,0,0,1,1.53-.294,8.4,8.4,0,0,1,9.238,7.473,1.258,1.258,0,0,0,.706,1,6.829,6.829,0,0,1-2.648,13.122h-6.12v-6.12a1.177,1.177,0,1,0-2.354,0v16.3A5.9,5.9,0,0,0,45.236,51.8h1a6.059,6.059,0,1,0,0-2.354h-1a3.541,3.541,0,0,1-3.531-3.531V38.087h6.12a9.291,9.291,0,0,0,8.238-5,9.176,9.176,0,0,0-4-12.357,10.8,10.8,0,0,0-10.651-9,9.305,9.305,0,0,0-2.236.235,14,14,0,0,0-25.538,7.885,11.492,11.492,0,0,0,.177,2A9.19,9.19,0,0,0,19.7,38.087h6.12v7.826a3.541,3.541,0,0,1-3.531,3.531h-1a6,6,0,0,0-11.769,0ZM48.472,50.62h0a3.707,3.707,0,1,1,3.707,3.707A3.692,3.692,0,0,1,48.472,50.62ZM15.4,54.327A3.707,3.707,0,1,1,19.11,50.62,3.692,3.692,0,0,1,15.4,54.327Z" transform="translate(-9.402 -5.899)"/><path class="a" d="M49.977,63.561a1.18,1.18,0,0,0,1.177-1.177V41.377a1.177,1.177,0,0,0-2.354,0V62.384A1.18,1.18,0,0,0,49.977,63.561Z" transform="translate(-25.617 -20.017)"/></g></g></svg>