<svg xmlns="http://www.w3.org/2000/svg" width="54.959" height="39.256" viewBox="0 0 54.959 39.256"><defs><style>.a{fill:#fcb53e;}</style></defs><g transform="translate(-2 -6)"><g transform="translate(2 6)"><path class="a" d="M22.61,27.591a2.944,2.944,0,1,0,2.944,2.944A2.947,2.947,0,0,0,22.61,27.591Zm0,3.926a.981.981,0,1,1,.981-.981A.983.983,0,0,1,22.61,31.517Zm13.74-3.926a2.944,2.944,0,1,0,2.944,2.944A2.947,2.947,0,0,0,36.349,27.591Zm0,3.926a.981.981,0,1,1,.981-.981A.983.983,0,0,1,36.349,31.517Zm1.963-7.851H20.647a6.87,6.87,0,0,0,0,13.74H38.312a6.87,6.87,0,1,0,0-13.74Zm0,11.777H20.647a4.907,4.907,0,1,1,0-9.814H38.312a4.907,4.907,0,0,1,0,9.814ZM55,27.772V11.708a2.944,2.944,0,1,0-1.963,0V27.772a2.943,2.943,0,0,0-1.067.656,23.556,23.556,0,0,0-44.973,0,2.942,2.942,0,0,0-1.067-.656V11.708a2.944,2.944,0,1,0-1.963,0V27.772A2.939,2.939,0,0,0,2,30.535v7.851a2.932,2.932,0,0,0,5.224,1.84,9.782,9.782,0,0,0,8.516,5.03H43.219a9.782,9.782,0,0,0,8.516-5.03,2.932,2.932,0,0,0,5.224-1.84V30.535A2.94,2.94,0,0,0,55,27.772ZM54.015,7.963a.981.981,0,1,1-.981.981A.983.983,0,0,1,54.015,7.963Zm-49.07,0a.981.981,0,1,1-.981.981A.983.983,0,0,1,4.944,7.963Zm.981,30.424a.981.981,0,1,1-1.963,0V30.535a.981.981,0,0,1,1.963,0Zm37.294,4.907H15.74a7.86,7.86,0,0,1-7.851-7.851,21.591,21.591,0,0,1,43.182,0A7.859,7.859,0,0,1,43.219,43.294ZM55,38.386a.981.981,0,1,1-1.963,0V30.535a.981.981,0,0,1,1.963,0Z" transform="translate(-2 -6)"/></g></g></svg>