<svg xmlns="http://www.w3.org/2000/svg" width="67.337" height="54.744" viewBox="0 0 67.337 54.744"><defs><style>.a{fill:#fcb53e;stroke:#fcb53e;}</style></defs><g transform="translate(-7.405 -12.073)"><path class="a" d="M38.421,25.956a.674.674,0,1,0,0,1.349,6.026,6.026,0,0,1,6.02,6.019.674.674,0,1,0,1.349,0A7.376,7.376,0,0,0,38.421,25.956Z" transform="translate(10.402 4.665)"/><path class="a" d="M38.421,19.4a.674.674,0,0,0,0,1.349A14.881,14.881,0,0,1,53.289,35.609a.674.674,0,1,0,1.349,0A16.231,16.231,0,0,0,38.421,19.4Z" transform="translate(10.402 2.379)"/><path class="a" d="M38.421,12.573a.674.674,0,0,0,0,1.349A24.1,24.1,0,0,1,62.492,37.988a.674.674,0,1,0,1.349,0A25.445,25.445,0,0,0,38.421,12.573Z" transform="translate(10.402)"/><path class="a" d="M28.843,28.777C18.692,28.777,7.9,30.9,7.9,34.84V54.606c0,3.938,10.789,6.063,20.938,6.063s20.938-2.125,20.938-6.063V34.84C49.781,30.9,38.993,28.777,28.843,28.777Zm0,1.349c12.137,0,19.589,2.746,19.589,4.715s-7.452,4.717-19.589,4.717S9.252,36.81,9.252,34.84,16.706,30.126,28.843,30.126Zm0,29.2c-12.137,0-19.589-2.746-19.589-4.715V37.079c3.185,2.5,11.575,3.829,19.589,3.829s16.405-1.33,19.589-3.829V54.607C48.432,56.576,40.98,59.322,28.843,59.322Z" transform="translate(0 5.648)"/><path class="a" d="M24.521,41.508a4.218,4.218,0,1,0,4.218,4.218A4.223,4.223,0,0,0,24.521,41.508Zm0,7.088a2.87,2.87,0,1,1,2.87-2.87A2.873,2.873,0,0,1,24.521,48.6Z" transform="translate(4.321 10.086)"/><path class="a" d="M17.271,41.508a2.372,2.372,0,1,0,2.371,2.373A2.375,2.375,0,0,0,17.271,41.508Zm0,3.394a1.024,1.024,0,1,1,1.022-1.022A1.024,1.024,0,0,1,17.271,44.9Z" transform="translate(2.438 10.086)"/><path class="a" d="M30.817,41.508a2.372,2.372,0,1,0,2.371,2.373A2.375,2.375,0,0,0,30.817,41.508Zm0,3.394a1.024,1.024,0,1,1,1.022-1.022A1.024,1.024,0,0,1,30.817,44.9Z" transform="translate(7.159 10.086)"/></g></svg>