<svg xmlns="http://www.w3.org/2000/svg" xmlns:xlink="http://www.w3.org/1999/xlink" width="91.272" height="41.811" viewBox="0 0 91.272 41.811"><defs><style>.a{fill:url(#a);}</style><linearGradient id="a" x1="0.5" x2="0.5" y2="1" gradientUnits="objectBoundingBox"><stop offset="0" stop-color="#ff8d02"/><stop offset="1" stop-color="#f511f5"/></linearGradient></defs><g transform="translate(0 -138.728)"><path class="a" d="M228.1,181.155a1.34,1.34,0,1,0,0-2.679H216.062a1.34,1.34,0,0,0,0,2.679Z" transform="translate(-176.445 -32.662)"/><path class="a" d="M87.036,149.279H85.865a4.921,4.921,0,0,0-4.9-4.555H77.648a7.9,7.9,0,0,0-7.627-6H33.179a1.34,1.34,0,0,0,0,2.679H70.021a5.2,5.2,0,0,1,5.158,4.773l.975,12.577a1.34,1.34,0,0,0,1.334,1.236c.035,0,.07,0,.105,0a1.34,1.34,0,0,0,1.232-1.439L77.961,147.4h3a2.239,2.239,0,0,1,2.237,2.237v18.29a2.239,2.239,0,0,1-2.237,2.237H79.726l-.487-6.275a1.34,1.34,0,0,0-2.671.207l.611,7.876a5.46,5.46,0,0,1-5.443,5.882h-10.3c-4.532,0-6.851-2.439-9.094-4.8-1.853-1.948-3.768-3.963-6.707-3.963s-4.855,2.014-6.707,3.963c-2.243,2.359-4.562,4.8-9.094,4.8h-10.3a5.46,5.46,0,0,1-5.443-5.882l2-25.8a5.2,5.2,0,0,1,5.158-4.773h6.57a1.34,1.34,0,0,0,0-2.679H21.25a7.9,7.9,0,0,0-7.627,6H10.307a4.922,4.922,0,0,0-4.9,4.555H4.235A4.24,4.24,0,0,0,0,153.515v10.693a4.24,4.24,0,0,0,4.235,4.235H5.418a4.923,4.923,0,0,0,4.889,4.4h1.1a8.133,8.133,0,0,0,8.123,7.691h10.3c5.681,0,8.65-3.122,11.036-5.631,1.845-1.94,3.062-3.13,4.766-3.13s2.921,1.189,4.766,3.13c2.386,2.509,5.354,5.631,11.036,5.631h10.3a8.133,8.133,0,0,0,8.123-7.691h1.1a4.923,4.923,0,0,0,4.889-4.4h1.183a4.24,4.24,0,0,0,4.235-4.235V153.515a4.24,4.24,0,0,0-4.235-4.235ZM8.07,167.932v-6.6a1.34,1.34,0,1,0-2.679,0v4.431H4.235a1.558,1.558,0,0,1-1.556-1.556V153.515a1.558,1.558,0,0,1,1.556-1.556H5.391v4.016a1.34,1.34,0,1,0,2.679,0v-6.334a2.239,2.239,0,0,1,2.237-2.237h3l-1.766,22.765H10.307a2.24,2.24,0,0,1-2.237-2.237Zm80.522-3.724a1.558,1.558,0,0,1-1.556,1.556H85.88V151.959h1.156a1.558,1.558,0,0,1,1.556,1.556Z"/></g></svg>