<svg xmlns="http://www.w3.org/2000/svg" xmlns:xlink="http://www.w3.org/1999/xlink" width="44.073" height="62.947" viewBox="0 0 44.073 62.947"><defs><style>.a{fill:url(#a);}</style><linearGradient id="a" x1="0.5" x2="0.5" y2="1" gradientUnits="objectBoundingBox"><stop offset="0" stop-color="#ff8d02"/><stop offset="1" stop-color="#f511f5"/></linearGradient></defs><g transform="translate(-535 -1329.899)"><g transform="translate(545.175 1344.126)"><g transform="translate(0 0)"><g transform="translate(0)"><path class="a" d="M65.395,9.313,49.584.153a1.135,1.135,0,0,0-1.138,0L32.629,9.313a1.139,1.139,0,0,0-.566.982s0,0,0,.007V28.464a1.139,1.139,0,0,0,.578.989l15.805,9.153a1.136,1.136,0,0,0,1.138,0l15.8-9.154.008,0a1.078,1.078,0,0,0,.569-.971s0-.009,0-.014V10.3s0,0,0-.007A1.138,1.138,0,0,0,65.395,9.313ZM47.88,35.655l-12.4-7.185,9.561-5.483a1.135,1.135,0,0,0-1.129-1.969L34.333,26.5V12.257l13.547,7.78Zm1.135-17.584L35.477,10.292,49.015,2.448l13.539,7.844ZM63.7,26.5l-9.577-5.488a1.135,1.135,0,1,0-1.129,1.969l9.561,5.483-12.4,7.185V20.037L63.7,12.257V26.5Z" transform="translate(-32.063 0)"/></g></g></g><g transform="translate(535 1329.899)"><path class="a" d="M142.458,8H118.092A6.1,6.1,0,0,0,112,14.092V64.855a6.1,6.1,0,0,0,6.092,6.092h24.367a6.1,6.1,0,0,0,6.092-6.092V14.092A6.1,6.1,0,0,0,142.458,8Zm-6.377,2.031-.508,2.031h-10.6l-.508-2.031Zm10.438,54.825a4.065,4.065,0,0,1-4.061,4.061H118.092a4.065,4.065,0,0,1-4.061-4.061V14.092a4.065,4.065,0,0,1,4.061-4.061h4.283l.824,3.292a1.015,1.015,0,0,0,.985.769h12.183a1.015,1.015,0,0,0,.985-.769l.824-3.292h4.283a4.065,4.065,0,0,1,4.061,4.061Z" transform="translate(-112 -8)"/><path class="a" d="M219.168,464H209.015a1.015,1.015,0,1,0,0,2.031h10.153a1.015,1.015,0,1,0,0-2.031Z" transform="translate(-195.817 -406.13)"/></g></g></svg>