<svg xmlns="http://www.w3.org/2000/svg" xmlns:xlink="http://www.w3.org/1999/xlink" width="67.757" height="67.921" viewBox="0 0 67.757 67.921"><defs><style>.a{fill:url(#a);}</style><linearGradient id="a" x1="0.5" x2="1.18" y2="1" gradientUnits="objectBoundingBox"><stop offset="0" stop-color="#ff8d02"/><stop offset="1" stop-color="#f511f5"/></linearGradient></defs><g transform="translate(-1.151 -1.001)"><path class="a" d="M65.445,42.63H54.49V39.343A3.291,3.291,0,0,0,51.2,36.057H31.428c.028-.363.056-.725.056-1.1s-.027-.733-.056-1.1h9.916a3.291,3.291,0,0,0,3.287-3.287V13.051a1.1,1.1,0,0,1,1.1-1.1h3.36a9.8,9.8,0,0,0,4.309,7.095V22.91a5.478,5.478,0,1,0,10.955,0V19.049A9.858,9.858,0,1,0,49.135,9.286c-.025.16-.023.318-.041.478H45.725a3.291,3.291,0,0,0-3.287,3.287V30.579a1.1,1.1,0,0,1-1.1,1.1H31.086a14.242,14.242,0,1,0,0,6.573H51.2a1.1,1.1,0,0,1,1.1,1.1V42.63H41.343a3.291,3.291,0,0,0-3.287,3.287V61.254a3.291,3.291,0,0,0,3.287,3.287h5.478v2.191H44.63v2.191H62.158V66.731H59.967V64.54h5.478a3.291,3.291,0,0,0,3.287-3.287V45.916A3.291,3.291,0,0,0,65.445,42.63ZM58.872,26.2a3.291,3.291,0,0,1-3.287-3.287V19.624h6.573V22.91A3.291,3.291,0,0,1,58.872,26.2Zm-1.1-15.337a1.1,1.1,0,1,1,1.1,1.1A1.1,1.1,0,0,1,57.776,10.86ZM51.3,9.623A7.722,7.722,0,0,1,57.991,3.24a8.144,8.144,0,0,1,.89-.049,7.586,7.586,0,0,1,5.105,1.953,7.654,7.654,0,0,1-1.191,12.288H59.967V13.945a3.287,3.287,0,1,0-2.191,0v3.488H54.95A7.66,7.66,0,0,1,51.3,9.623ZM17.242,47.012c-1.178,0-2.432-1.673-3.3-4.382h6.593C19.674,45.339,18.419,47.012,17.242,47.012Zm-3.855-6.573a27.166,27.166,0,0,1-.5-4.382H21.6a27.29,27.29,0,0,1-.5,4.382Zm-8.14-4.382h5.446a30.045,30.045,0,0,0,.448,4.382H6.521a11.94,11.94,0,0,1-1.274-4.382ZM17.242,22.91c1.178,0,2.432,1.673,3.3,4.382H13.945c.864-2.709,2.119-4.382,3.3-4.382ZM21.1,29.483a27.165,27.165,0,0,1,.5,4.382H12.883a27.29,27.29,0,0,1,.5-4.382Zm8.14,4.382H23.791a30.045,30.045,0,0,0-.448-4.382h4.62A11.94,11.94,0,0,1,29.237,33.866Zm-18.544,0H5.247a11.941,11.941,0,0,1,1.275-4.382h4.62A29.741,29.741,0,0,0,10.693,33.866Zm13.1,2.191h5.446a11.941,11.941,0,0,1-1.275,4.382h-4.62A29.74,29.74,0,0,0,23.791,36.057Zm2.74-8.764h-3.7a15.184,15.184,0,0,0-1.524-3.66,12.092,12.092,0,0,1,5.22,3.66Zm-13.358-3.66a15.184,15.184,0,0,0-1.524,3.66h-3.7A12.092,12.092,0,0,1,13.173,23.632Zm-5.22,19h3.7a15.184,15.184,0,0,0,1.524,3.66A12.092,12.092,0,0,1,7.953,42.63Zm13.358,3.66a15.184,15.184,0,0,0,1.524-3.66h3.7a12.092,12.092,0,0,1-5.22,3.66Zm20.033-1.469h24.1a1.1,1.1,0,0,1,1.1,1.1V57.967H40.248V45.916A1.1,1.1,0,0,1,41.343,44.821Zm16.433,21.91H49.012V64.54h8.764Zm7.669-4.382h-24.1a1.1,1.1,0,0,1-1.1-1.1v-1.1H66.54v1.1A1.1,1.1,0,0,1,65.445,62.349Z" transform="translate(0.177 0)"/><path class="a" d="M3.979,20.455,5.528,22a16.432,16.432,0,0,1,23.239,0l1.549-1.549a18.622,18.622,0,0,0-26.337,0Z" transform="translate(0.27 1.337)"/><path class="a" d="M30.317,44.156l-1.549-1.549a16.432,16.432,0,0,1-23.239,0L3.98,44.155a18.622,18.622,0,0,0,26.337,0Z" transform="translate(0.27 3.974)"/><path class="a" d="M32.137,19.286l1.549-1.549a23.031,23.031,0,0,0-32.535,0L2.7,19.286A20.843,20.843,0,0,1,32.137,19.286Z" transform="translate(0 0.956)"/><path class="a" d="M2.7,45.436,1.151,46.985a23.033,23.033,0,0,0,32.535,0l-1.549-1.549a20.842,20.842,0,0,1-29.437,0Z" transform="translate(0 4.244)"/></g></svg>