<svg xmlns="http://www.w3.org/2000/svg" xmlns:xlink="http://www.w3.org/1999/xlink" width="67.515" height="67.515" viewBox="0 0 67.515 67.515"><defs><style>.a{fill:url(#a);}</style><linearGradient id="a" x1="0.5" x2="0.5" y2="1" gradientUnits="objectBoundingBox"><stop offset="0" stop-color="#ff8d02"/><stop offset="1" stop-color="#f511f5"/></linearGradient></defs><g transform="translate(0 0)"><path class="a" d="M67.515,33.726c-.062-7.245-6.745-13.615-16.676-17.05a44.554,44.554,0,0,0-1.874-4.622C45.156,4.372,39.659,0,33.726,0c-10.93,0-19.8,15.114-19.8,33.726A55.56,55.56,0,0,0,15.864,48.4c-8.307-3.248-13.8-8.619-13.8-14.677,0-4.559,3.185-8.931,8.869-12.241l-.937,3.373a1.035,1.035,0,0,0,.687,1.249c.062,0,.187.062.25.062a1.069,1.069,0,0,0,1-.749l1.561-5.683c0-.125.062-.187.062-.312v-.187c0-.062-.062-.187-.062-.25s-.062-.062-.062-.125l-.187-.187-.062-.062a1.365,1.365,0,0,0-.312-.187L7.682,16.676A1.027,1.027,0,1,0,7,18.612l2.935,1C3.56,23.358,0,28.417,0,33.726c0,7.245,6.683,13.615,16.676,17.05a35.433,35.433,0,0,0,2.935,6.62c3.747,6.5,8.744,10.118,14.177,10.118,6.246,0,11.992-4.809,15.739-13.241a1.034,1.034,0,1,0-1.874-.874c-3.435,7.682-8.494,12.054-13.865,12.054-4.622,0-8.994-3.248-12.366-9.056a28.34,28.34,0,0,1-2.248-4.809,54.061,54.061,0,0,0,14.615,1.936C52.4,53.525,67.515,44.656,67.515,33.726ZM18.3,49.215a51,51,0,0,1-2.248-15.489c0-17.488,7.932-31.665,17.737-31.665,5.121,0,9.993,4,13.366,10.93.437.937.874,1.936,1.249,2.935A54.061,54.061,0,0,0,33.789,13.99a57.9,57.9,0,0,0-13.3,1.561,1.03,1.03,0,0,0,.5,2,53.268,53.268,0,0,1,12.8-1.5A51.661,51.661,0,0,1,49.215,18.3a39.694,39.694,0,0,1,1.124,4.122,51.98,51.98,0,0,1,1.187,11.367,54.249,54.249,0,0,1-.749,9.056l-2.248-2.623a1.02,1.02,0,0,0-1.561,1.312l3.685,4.247a1.363,1.363,0,0,0,.312.25.061.061,0,0,1,.062.062.9.9,0,0,0,.437.125h.25c.062,0,.062,0,.125-.062.062,0,.125-.062.187-.062h.062l4.747-3.373a1.031,1.031,0,1,0-1.187-1.686L52.963,42.97a53.507,53.507,0,0,0,.687-8.994,56.039,56.039,0,0,0-1.249-11.8c-.187-1-.437-1.936-.687-2.873,8.369,3.185,13.865,8.556,13.865,14.615-.187,9.556-14.365,17.55-31.852,17.55A51.661,51.661,0,0,1,18.3,49.215Z" transform="translate(0 0)"/></g></svg>