<svg xmlns="http://www.w3.org/2000/svg" xmlns:xlink="http://www.w3.org/1999/xlink" width="74.234" height="109.575" viewBox="0 0 74.234 109.575"><defs><style>.a{fill:url(#a);}</style><linearGradient id="a" x1="0.5" x2="0.5" y2="1" gradientUnits="objectBoundingBox"><stop offset="0" stop-color="#ff8d02"/><stop offset="1" stop-color="#f511f5"/></linearGradient></defs><g transform="translate(-534 -1429.639)"><g transform="translate(542.363 1429.639)"><path class="a" d="M53.334,21.41l-2.8-.476c-.25-.695-.532-1.377-.844-2.04l1.651-2.31a5,5,0,0,0-.543-6.477l-3.37-3.371a5.01,5.01,0,0,0-6.466-.543L38.639,7.845a23.113,23.113,0,0,0-2.178-.9L36,4.2A5.018,5.018,0,0,0,31.033,0H26.272a5.016,5.016,0,0,0-4.963,4.195L20.821,7.05q-1.033.377-2.032.856l-2.277-1.64a5.026,5.026,0,0,0-6.488.541L6.646,10.174A5.019,5.019,0,0,0,6.1,16.651l1.678,2.358c-.309.666-.587,1.35-.833,2.049L4.2,21.523A5.018,5.018,0,0,0,0,26.487v4.761A5.017,5.017,0,0,0,4.2,36.211l2.855.487c.251.689.537,1.368.856,2.032L6.273,41a5,5,0,0,0,.543,6.477l3.37,3.371a5.01,5.01,0,0,0,6.466.543l2.358-1.678c.62.288,1.262.552,1.921.789l.467,2.8a5.018,5.018,0,0,0,4.964,4.2h4.772a5.017,5.017,0,0,0,4.964-4.2l.476-2.8c.695-.25,1.377-.532,2.04-.844l2.3,1.646a5.025,5.025,0,0,0,6.485-.537l3.37-3.371a5.018,5.018,0,0,0,.543-6.477L49.662,38.6c.32-.678.6-1.36.847-2.037l2.8-.467a5.018,5.018,0,0,0,4.2-4.964V26.383a4.968,4.968,0,0,0-4.174-4.973Zm.8,9.725a1.658,1.658,0,0,1-1.386,1.641l-3.715.619a1.816,1.816,0,0,0-1.444,1.262A19.7,19.7,0,0,1,46.249,37.9a1.815,1.815,0,0,0,.133,1.9l2.189,3.074a1.659,1.659,0,0,1-.181,2.141l-3.37,3.37a1.656,1.656,0,0,1-2.138.183L39.82,46.384a1.815,1.815,0,0,0-1.909-.133A19.841,19.841,0,0,1,34.66,47.6a1.816,1.816,0,0,0-1.253,1.436l-.631,3.718a1.658,1.658,0,0,1-1.641,1.388H26.362a1.658,1.658,0,0,1-1.641-1.386L24.1,49.039a1.817,1.817,0,0,0-1.25-1.441A19.721,19.721,0,0,1,19.7,46.3a1.818,1.818,0,0,0-1.9.133l-3.116,2.217a1.592,1.592,0,0,1-.949.3,1.626,1.626,0,0,1-1.172-.491L9.193,45.092a1.645,1.645,0,0,1-.179-2.128l2.176-3.027a1.814,1.814,0,0,0,.129-1.925,19.267,19.267,0,0,1-1.363-3.235,1.82,1.82,0,0,0-1.433-1.247l-3.765-.642A1.659,1.659,0,0,1,3.37,31.248V26.487a1.659,1.659,0,0,1,1.389-1.641l3.669-.619A1.815,1.815,0,0,0,9.87,22.959,19.424,19.424,0,0,1,11.193,19.7a1.818,1.818,0,0,0-.133-1.9L8.848,14.7a1.658,1.658,0,0,1,.179-2.139l3.381-3.37.012-.013a1.613,1.613,0,0,1,1.162-.48,1.632,1.632,0,0,1,.961.3l3.04,2.188a1.812,1.812,0,0,0,1.925.129,19.262,19.262,0,0,1,3.233-1.363,1.82,1.82,0,0,0,1.248-1.433l.642-3.765a1.658,1.658,0,0,1,1.641-1.387h4.761a1.659,1.659,0,0,1,1.641,1.389l.619,3.67A1.815,1.815,0,0,0,34.562,9.87a19.61,19.61,0,0,1,3.373,1.388,1.817,1.817,0,0,0,1.9-.131L42.92,8.933a1.59,1.59,0,0,1,.949-.3,1.628,1.628,0,0,1,1.172.491l3.376,3.376a1.646,1.646,0,0,1,.177,2.132L46.4,17.69a1.817,1.817,0,0,0-.131,1.907,19.831,19.831,0,0,1,1.347,3.252A1.816,1.816,0,0,0,49.056,24.1l3.715.63h0a1.616,1.616,0,0,1,1.365,1.617Zm0,0" transform="translate(0 0)"/><path class="a" d="M167.634,156.453a11.181,11.181,0,1,0,11.181,11.181A11.194,11.194,0,0,0,167.634,156.453Zm0,18.993a7.812,7.812,0,1,1,7.812-7.812A7.82,7.82,0,0,1,167.634,175.446Zm0,0" transform="translate(-138.88 -138.88)"/></g><g transform="translate(571.117 1464.981) rotate(45)"><g transform="translate(0 0)"><path class="a" d="M20.924,29.177,3.23,46.873l.051-10.785a1.64,1.64,0,0,0-3.281,0V50.851A1.461,1.461,0,0,0,.518,52a1.632,1.632,0,0,0,1.17.494H16.4a1.64,1.64,0,1,0,0-3.281H5.53L23.244,31.5ZM51.973.494A1.63,1.63,0,0,0,50.805,0H36.088a1.64,1.64,0,0,0,0,3.281H46.96L29.248,20.995l2.319,2.319,17.7-17.7L49.211,16.4a1.64,1.64,0,1,0,3.281,0V1.64A1.461,1.461,0,0,0,51.973.494Z"/></g></g></g></svg>